<svg width="36" height="36" viewBox="0 0 36 36" fill="none" xmlns="http://www.w3.org/2000/svg">
<path d="M35.6173 18.405C35.6173 17.22 35.5123 16.095 35.3323 15H18.3823V21.765H28.0873C27.6523 23.985 26.3773 25.86 24.4873 27.135V31.635H30.2773C33.6673 28.5 35.6173 23.88 35.6173 18.405Z" fill="#4285F4"/>
<path d="M18.3824 36.0001C23.2424 36.0001 27.3074 34.3801 30.2774 31.6351L24.4874 27.1351C22.8674 28.2151 20.8124 28.8751 18.3824 28.8751C13.6874 28.8751 9.71238 25.7101 8.28738 21.4351H2.31738V26.0701C5.27238 31.9501 11.3474 36.0001 18.3824 36.0001Z" fill="#34A853"/>
<path d="M8.28732 21.4349C7.91232 20.3549 7.71732 19.1999 7.71732 17.9999C7.71732 16.7999 7.92732 15.6449 8.28732 14.5649V9.92993H2.31732C1.08732 12.3599 0.382324 15.0899 0.382324 17.9999C0.382324 20.9099 1.08732 23.6399 2.31732 26.0699L8.28732 21.4349Z" fill="#FBBC05"/>
<path d="M18.3824 7.125C21.0374 7.125 23.4074 8.04 25.2824 9.825L30.4124 4.695C27.3074 1.785 23.2424 0 18.3824 0C11.3474 0 5.27238 4.05 2.31738 9.93L8.28738 14.565C9.71238 10.29 13.6874 7.125 18.3824 7.125Z" fill="#EA4335"/>
</svg>
